# xmcd CD database file
#
# Track frame offsets:
#	182
#	32240
#	53732
#	72995
#	96760
#	125165
#	144970
#	158090
#	183917
#	210915
#	228927
#
# Disc length: 3373 seconds
#
# Revision: 0
# Processed by: cddbd v1.5.2PL0 Copyright (c) Steve Scherf et al.
# Submitted via: CDex 1.70beta2
#
DISCID=900d2b0b
DTITLE=Tom Pomposello - Nobody's Fault But Mine
DYEAR=1992
DGENRE=Blues
TTITLE0=Walkin' Blues
TTITLE1=You Got to Move
TTITLE2=Spoonful
TTITLE3=Needed Time
TTITLE4=Nobody's Fault But Mine
TTITLE5=Scratch My Back
TTITLE6=By Bye Bird
TTITLE7=St. Louis Blues
TTITLE8=Roll and Tumble
TTITLE9=Baby Please Don't Go
TTITLE10=When I Lay My Burden Down
EXTD=YEAR: 1992
EXTT0=
EXTT1=
EXTT2=
EXTT3=
EXTT4=
EXTT5=
EXTT6=
EXTT7=
EXTT8=
EXTT9=
EXTT10=
PLAYORDER=
